# xmcd
#
# Track frame offsets:
#	150
#	13772
#	30973
#	43929
#	59547
#	82491
#	101475
#	122328
#	132286
#	155167
#	174917
#	187816
#	202750
#	220747
#	237110
#	257567
#	268648
#
# Disc length: 3830 seconds
#
# Revision: 0
# Processed by: cddbd v1.5.2PL0 Copyright (c) Steve Scherf et al.
# Submitted via: EasyCDDAExtractor 15.2.5.1
#
DISCID=e20ef411
DTITLE=Big Mama Thornton - With The Muddy Waters Blues Band
DYEAR=1966
DGENRE=Carlos
TTITLE0=I'm Feeling Alright
TTITLE1=Sometimes I Have a Heartache
TTITLE2=Black Rat
TTITLE3=Life Goes On
TTITLE4=Everything Gonna Be Alright
TTITLE5=Big Mama's Bumble Bee Blues
TTITLE6=Gimme A Penny
TTITLE7=Looking The World Over
TTITLE8=I Feel The Way I Feel
TTITLE9=Guide Me Home
TTITLE10=Black Rat
TTITLE11=Wrapped Tight
TTITLE12=Gimme A Penny
TTITLE13=Big Mama's Shuffle
TTITLE14=Since I Fell For  You
TTITLE15=I'm Feeling Alright
TTITLE16=Big Mama's Blues (My Love)
EXTD=
EXTT0=
EXTT1=
EXTT2=
EXTT3=
EXTT4=
EXTT5=
EXTT6=
EXTT7=
EXTT8=
EXTT9=
EXTT10=
EXTT11=
EXTT12=
EXTT13=
EXTT14=
EXTT15=
EXTT16=
PLAYORDER=
